<?xml version="1.0" encoding="utf-8"?>
<!-- Generator: Adobe Illustrator 19.0.0, SVG Export Plug-In . SVG Version: 6.00 Build 0)  -->
<svg version="1.1" id="Capa_1" xmlns="http://www.w3.org/2000/svg" xmlns:xlink="http://www.w3.org/1999/xlink" x="0px" y="0px"
	 viewBox="0 0 138 58.4" enable-background="new 0 0 138 58.4" xml:space="preserve">
<g id="XMLID_28_">
	<path id="XMLID_31_" d="M39.9,27.7h9.9v3.8H35.3V11.3h14.2v3.8h-9.6v4.3h8.5v3.4h-8.5V27.7z"/>
	<path id="XMLID_33_" d="M68.9,24l4.5,0.6C73,26.8,71.9,28.6,70,30c-1.9,1.4-4.1,2.2-6.7,2.2c-3.1,0-5.7-1-7.7-3.1
		c-2-2-3.1-4.6-3.1-7.8c0-3.1,1-5.7,3.1-7.8c2-2,4.6-3.1,7.7-3.1c2.6,0,4.8,0.7,6.7,2.2c1.9,1.5,3,3.4,3.4,5.7l-4.5,0.5
		c-0.3-1.2-0.9-2.3-2-3.1c-1-0.8-2.2-1.2-3.5-1.2c-1.8,0-3.3,0.6-4.4,1.9c-1.1,1.3-1.7,2.9-1.7,4.8c0,2,0.6,3.6,1.7,4.8
		c1.1,1.3,2.6,1.9,4.4,1.9c1.3,0,2.4-0.4,3.5-1.2C67.9,26.1,68.6,25.2,68.9,24z"/>
	<path id="XMLID_35_" d="M81.8,11.3v20.2H77V11.3H81.8z"/>
	<path id="XMLID_37_" d="M99.6,31.5H86.4V11.3h4.8v16.1h8.5V31.5z"/>
	<path id="XMLID_39_" d="M107.7,11.3v20.2h-4.8V11.3H107.7z"/>
	<path id="XMLID_41_" d="M124.2,11.3l6.8,20.2h-5l-1.2-3.7h-8.1l-1.1,3.7h-5l6.8-20.2H124.2z M120.8,15.4l-3.1,9h6.1L120.8,15.4z"/>
</g>
<path id="XMLID_27_" fill="#9400FF" d="M20,52V31.8c3-0.4,4.9-1.4,7.1-3c2.8-2.1,4.3-4.8,4.9-8.1l-6.6-0.8c-0.5,1.8-1.5,3.2-3,4.4
	C20.7,25.4,19,26,17.1,26c-2.7,0-4.8-0.9-6.5-2.8c-1.7-1.9-2.5-4.2-2.5-7.2c0-2.9,0.8-5.3,2.5-7.2C12.3,7,14.5,6,17.1,6
	c1.9,0,3.7,0.6,5.2,1.8c1.5,1.2,2.5,2.7,2.9,4.6l6.6-0.8c-0.5-3.4-2.2-6.2-5-8.4C24,1.1,20.7,0,17,0C12.3,0,8.5,1.5,5.5,4.5
	C2.5,7.5,1,11.4,1,16c0,4.6,1.7,8.5,4.8,11.5c2,2,5.2,3.3,7.2,4V58h20v-6H20z"/>
<g id="XMLID_30_">
	<path id="XMLID_15_" d="M35,48.3c0-3.2,1-5.8,3.1-7.8c2.1-2,4.8-3,8.1-3c3.3,0,6,1,8.1,3c2.1,2,3.1,4.6,3.1,7.8
		c0,3.2-1,5.8-3.1,7.8c-2.1,2-4.8,3-8.1,3c-3.3,0-6-1-8.1-3C36.1,54.1,35,51.5,35,48.3z M41.6,43.4c-1.2,1.3-1.8,2.9-1.8,4.8
		c0,2,0.6,3.6,1.8,4.8c1.2,1.3,2.7,1.9,4.6,1.9c1.9,0,3.4-0.6,4.6-1.9c1.2-1.3,1.8-2.9,1.8-4.8c0-2-0.6-3.6-1.8-4.8
		c-1.2-1.3-2.7-1.9-4.6-1.9C44.3,41.5,42.8,42.2,41.6,43.4z"/>
	<path id="XMLID_18_" d="M64.7,51.4l-7.2-13.2h5.1l4.5,9l4.3-9h5.1l-7,13.2v7h-4.8V51.4z"/>
	<path id="XMLID_20_" d="M76.7,48.3c0-3.2,1-5.8,3.1-7.8c2.1-2,4.8-3,8.1-3c3.3,0,6,1,8.1,3c2.1,2,3.1,4.6,3.1,7.8
		c0,3.2-1,5.8-3.1,7.8c-2.1,2-4.8,3-8.1,3c-3.3,0-6-1-8.1-3C77.7,54.1,76.7,51.5,76.7,48.3z M83.3,43.4c-1.2,1.3-1.8,2.9-1.8,4.8
		c0,2,0.6,3.6,1.8,4.8c1.2,1.3,2.7,1.9,4.6,1.9c1.9,0,3.4-0.6,4.6-1.9c1.2-1.3,1.8-2.9,1.8-4.8c0-2-0.6-3.6-1.8-4.8
		c-1.2-1.3-2.7-1.9-4.6-1.9C86,41.5,84.4,42.2,83.3,43.4z"/>
	<path id="XMLID_23_" d="M116,58.4h-13.2V38.2h4.8v16.1h8.5V58.4z"/>
	<path id="XMLID_25_" d="M131.2,38.2l6.8,20.2h-5l-1.2-3.7h-8.1l-1.1,3.7h-5l6.8-20.2H131.2z M127.8,42.3l-3.1,9h6.1L127.8,42.3z"/>
</g>
</svg>
