<?xml version="1.0" encoding="utf-8"?>
<!-- Generator: Adobe Illustrator 19.0.0, SVG Export Plug-In . SVG Version: 6.00 Build 0)  -->
<svg version="1.1" id="Capa_1" xmlns="http://www.w3.org/2000/svg" xmlns:xlink="http://www.w3.org/1999/xlink" x="0px" y="0px"
	 viewBox="0 0 154.3 65.8" style="enable-background:new 0 0 154.3 65.8;" xml:space="preserve">
<g id="XMLID_28_">
	<path id="XMLID_31_" d="M43.8,31.2H55v4.3H38.7V12.7h16V17H43.8v4.9h9.5v3.8h-9.5V31.2z"/>
	<path id="XMLID_33_" d="M76.5,27l5,0.6c-0.4,2.5-1.6,4.6-3.8,6.2c-2.1,1.6-4.7,2.4-7.6,2.4c-3.5,0-6.4-1.1-8.7-3.4
		c-2.3-2.3-3.4-5.2-3.4-8.8c0-3.5,1.1-6.5,3.4-8.8c2.3-2.3,5.2-3.4,8.7-3.4c2.9,0,5.4,0.8,7.5,2.5c2.1,1.7,3.4,3.8,3.8,6.4l-5,0.6
		c-0.3-1.4-1.1-2.6-2.2-3.5c-1.2-0.9-2.5-1.4-3.9-1.4c-2,0-3.7,0.7-5,2.1c-1.3,1.4-1.9,3.2-1.9,5.5c0,2.2,0.6,4,1.9,5.5
		c1.3,1.4,2.9,2.1,5,2.1c1.4,0,2.7-0.4,3.9-1.3C75.4,29.4,76.1,28.3,76.5,27z"/>
	<path id="XMLID_35_" d="M91,12.7v22.8h-5.4V12.7H91z"/>
	<path id="XMLID_37_" d="M111.1,35.5H96.2V12.7h5.4v18.2h9.5V35.5z"/>
	<path id="XMLID_39_" d="M120.2,12.7v22.8h-5.4V12.7H120.2z"/>
	<path id="XMLID_41_" d="M138.8,12.7l7.6,22.8h-5.6l-1.3-4.1h-9.2l-1.3,4.1h-5.7l7.6-22.8H138.8z M134.9,17.3l-3.5,10.2h6.9
		L134.9,17.3z"/>
</g>
<path id="XMLID_27_" d="M21.6,58.6V35.8c3-0.4,5.4-1.6,7.9-3.4c3.2-2.4,4.8-5.5,5.4-9.2l-7.5-0.9c-0.5,2-1.7,3.6-3.4,4.9
	c-1.7,1.3-3.7,2-5.8,2c-3,0-5.5-1-7.4-3.1C8.9,24,8,21.3,8,18c0-3.3,1-6,2.9-8.1c1.9-2.1,4.4-3.1,7.4-3.1c2.2,0,4.1,0.7,5.8,2
	c1.7,1.3,2.8,3.1,3.3,5.1l7.4-0.9c-0.6-3.8-2.5-7-5.6-9.4C25.9,1.2,22.2,0,18,0C12.8,0,8.5,1.7,5.1,5.1C1.7,8.5,0,12.8,0,18
	c0,5.2,2,9.5,5.4,12.9c2.2,2.2,5.2,3.7,8.2,4.5v30.2h22v-7H21.6z"/>
<g id="XMLID_30_">
	<path id="XMLID_15_" d="M38.3,54.4c0-3.6,1.2-6.5,3.5-8.8c2.3-2.3,5.4-3.4,9.1-3.4c3.7,0,6.8,1.1,9.1,3.4c2.3,2.3,3.5,5.2,3.5,8.8
		s-1.2,6.5-3.5,8.8c-2.3,2.3-5.4,3.4-9.1,3.4c-3.7,0-6.8-1.1-9.1-3.4C39.5,60.9,38.3,58,38.3,54.4z M45.7,48.9c-1.3,1.4-2,3.2-2,5.5
		s0.7,4,2,5.4c1.3,1.4,3.1,2.1,5.2,2.1c2.1,0,3.9-0.7,5.2-2.1c1.3-1.4,2-3.2,2-5.5s-0.7-4-2-5.5c-1.3-1.4-3.1-2.1-5.2-2.1
		C48.8,46.8,47,47.5,45.7,48.9z"/>
	<path id="XMLID_18_" d="M71.8,57.8L63.7,43h5.7l5.1,10.1L79.3,43h5.8l-7.9,14.8v7.9h-5.4V57.8z"/>
	<path id="XMLID_20_" d="M85.3,54.4c0-3.6,1.2-6.5,3.5-8.8c2.3-2.3,5.4-3.4,9.1-3.4c3.7,0,6.8,1.1,9.1,3.4c2.3,2.3,3.5,5.2,3.5,8.8
		s-1.2,6.5-3.5,8.8c-2.3,2.3-5.4,3.4-9.1,3.4c-3.7,0-6.8-1.1-9.1-3.4C86.4,60.9,85.3,58,85.3,54.4z M92.6,48.9c-1.3,1.4-2,3.2-2,5.5
		s0.7,4,2,5.4c1.3,1.4,3.1,2.1,5.2,2.1c2.1,0,3.9-0.7,5.2-2.1c1.3-1.4,2-3.2,2-5.5s-0.7-4-2-5.5c-1.3-1.4-3.1-2.1-5.2-2.1
		C95.7,46.8,94,47.5,92.6,48.9z"/>
	<path id="XMLID_23_" d="M129.5,65.8h-14.9V43h5.4v18.2h9.5V65.8z"/>
	<path id="XMLID_25_" d="M146.7,43l7.6,22.8h-5.6l-1.3-4.1h-9.2l-1.3,4.1h-5.7l7.6-22.8H146.7z M142.8,47.6l-3.5,10.2h6.9
		L142.8,47.6z"/>
</g>
</svg>
